<svg width="2803" height="534" viewBox="0 0 2803 534" fill="none" xmlns="http://www.w3.org/2000/svg">
<path d="M125.803 151.053H45.0599V120.19H125.803V151.053ZM80.8812 38.3481H89.9765L34.3127 196.796H0.143555L68.756 3.90305H102.102L170.709 196.796H136.556L80.8812 38.3481ZM275.491 200.654C255.115 200.654 237.643 196.52 223.126 188.254C208.61 179.895 197.525 168.183 189.818 153.119C182.111 138.055 178.205 120.373 178.205 100.074C178.205 79.9578 182.48 62.4138 191.032 47.4415C199.689 32.3774 211.566 20.7122 226.716 12.4454C241.866 4.17859 259.338 0.0449219 279.081 0.0449219C289.269 0.0449219 299.034 1.10117 308.272 3.21419C317.668 5.32669 325.639 8.0362 332.29 11.3433L328.437 44.9616C321.521 41.7464 313.92 39.1288 305.527 37.1081C297.292 34.9956 288.477 33.9388 279.081 33.9388C264.776 33.9388 253.004 36.8326 243.819 42.6195C234.634 48.3141 227.824 56.1217 223.443 66.0417C219.009 75.8705 216.792 87.0306 216.792 99.5229C216.792 112.658 219.009 124.277 223.443 134.381C227.93 144.485 234.634 152.43 243.555 158.217C252.423 163.912 263.561 166.76 276.864 166.76C280.928 166.76 285.151 166.484 289.533 165.933C294.072 165.382 298.665 164.647 303.31 163.729V129.283H276.864V100.074H338.624V186.049C331.92 189.999 322.999 193.443 311.861 196.383C300.882 199.23 288.741 200.654 275.491 200.654ZM372.778 196.796V3.90305H496.247V38.0725H408.884V79.1311H476.662V113.301H408.884V162.626H498.991V196.796H372.778ZM529.396 196.796V3.90305H564.131L646.531 128.457V3.90305H681.792V196.796H652.865L564.711 64.5263V196.796H529.396ZM811.596 200.654C792.065 200.654 774.803 196.52 759.917 188.254C745.031 179.895 733.418 168.229 725.078 153.257C716.791 138.193 712.673 120.557 712.673 100.35C712.673 80.1415 716.949 62.5515 725.5 47.5793C734.104 32.5152 745.981 20.85 761.026 12.5832C776.123 4.22451 793.332 0.0449219 812.704 0.0449219C822.892 0.0449219 832.236 1.14709 840.682 3.35196C849.128 5.46446 856.412 8.12805 862.588 11.3433L858.734 44.9616C851.767 41.7464 844.535 39.1288 837.092 37.1081C829.755 34.9956 821.52 33.9388 812.44 33.9388C798.927 33.9388 787.631 36.7867 778.551 42.4817C769.525 48.1763 762.715 56.0298 758.123 66.0417C753.53 76.0542 751.26 87.4898 751.26 100.35C751.26 113.209 753.53 124.645 758.017 134.657C762.504 144.669 769.208 152.522 778.129 158.217C787.102 163.912 798.294 166.76 811.596 166.76C820.887 166.76 829.174 165.749 836.564 163.729C843.902 161.708 851.291 159.044 858.734 155.737L862.588 189.356C855.303 192.754 847.333 195.464 838.623 197.485C829.966 199.597 820.992 200.654 811.596 200.654ZM892.149 196.796V3.90305H927.463V196.796H892.149ZM1075.21 151.053H994.45V120.19H1075.21V151.053ZM1030.29 38.3481H1039.37L983.734 196.796H949.528L1018.15 3.90305H1051.51L1120.14 196.796H1085.98L1030.29 38.3481ZM1204.07 196.796V3.90305H1276.28C1294.65 3.90305 1311.01 7.76065 1325.32 15.4764C1339.62 23.1003 1350.92 34.1231 1359.05 48.5437C1367.23 62.873 1371.35 80.1415 1371.35 100.35C1371.35 120.557 1367.23 137.871 1359.05 152.293C1350.92 166.622 1339.62 177.644 1325.32 185.36C1311.01 192.984 1294.65 196.796 1276.28 196.796H1204.07ZM1239.33 165.382H1276.28C1288.74 165.382 1299.19 162.764 1307.53 157.528C1315.92 152.293 1322.2 144.806 1326.43 135.07C1330.65 125.334 1332.76 113.76 1332.76 100.35C1332.76 86.9387 1330.65 75.3654 1326.43 65.6284C1322.2 55.8921 1315.92 48.4059 1307.53 43.1706C1299.19 37.9348 1288.74 35.3171 1276.28 35.3171H1239.33V165.382ZM1402.39 196.796V3.90305H1437.65V196.796H1402.39ZM1565.87 200.654C1545.49 200.654 1528.02 196.52 1513.5 188.254C1498.99 179.895 1487.9 168.183 1480.2 153.119C1472.44 138.055 1468.58 120.373 1468.58 100.074C1468.58 79.9578 1472.86 62.4138 1481.41 47.4415C1490.07 32.3774 1501.94 20.7122 1517.09 12.4454C1532.24 4.17859 1549.72 0.0449219 1569.46 0.0449219C1579.65 0.0449219 1589.41 1.10117 1598.65 3.21419C1608.05 5.32669 1616.02 8.0362 1622.61 11.3433L1618.76 44.9616C1611.9 41.7464 1604.25 39.1288 1595.9 37.1081C1587.67 34.9956 1578.8 33.9388 1569.46 33.9388C1555.15 33.9388 1543.38 36.8326 1534.2 42.6195C1525.01 48.3141 1518.2 56.1217 1513.77 66.0417C1509.39 75.8705 1507.17 87.0306 1507.17 99.5229C1507.17 112.658 1509.39 124.277 1513.77 134.381C1518.31 144.485 1525.01 152.43 1533.93 158.217C1542.8 163.912 1553.94 166.76 1567.24 166.76C1571.31 166.76 1575.53 166.484 1579.91 165.933C1584.45 165.382 1589.04 164.647 1593.69 163.729V129.283H1567.24V100.074H1629V186.049C1622.3 189.999 1613.38 193.443 1602.24 196.383C1591.21 199.23 1579.12 200.654 1565.87 200.654ZM1663.16 196.796V3.90305H1698.42V196.796H1663.16ZM1778.44 196.796V38.0725H1723.86V3.90305H1868.23V38.0725H1813.7V196.796H1778.44ZM1984.26 151.053H1903.49V120.19H1984.26V151.053ZM1939.34 38.3481H1948.42L1892.78 196.796H1858.63L1927.2 3.90305H1960.56L2029.18 196.796H1995.03L1939.34 38.3481ZM2051.25 196.796V3.90305H2086.51V165.382H2165.85V196.796H2051.25ZM2250.89 196.796V3.90305H2323.1C2341.47 3.90305 2357.83 7.76065 2372.14 15.4764C2386.5 23.1003 2397.74 34.1231 2405.92 48.5437C2414.1 62.873 2418.17 80.1415 2418.17 100.35C2418.17 120.557 2414.1 137.871 2405.92 152.293C2397.74 166.622 2386.5 177.644 2372.14 185.36C2357.83 192.984 2341.47 196.796 2323.1 196.796H2250.89ZM2286.15 165.382H2323.1C2335.61 165.382 2346.01 162.764 2354.35 157.528C2362.74 152.293 2369.02 144.806 2373.25 135.07C2377.47 125.334 2379.58 113.76 2379.58 100.35C2379.58 86.9387 2377.47 75.3654 2373.25 65.6284C2369.02 55.8921 2362.74 48.4059 2354.35 43.1706C2346.01 37.9348 2335.61 35.3171 2323.1 35.3171H2286.15V165.382ZM2449.21 196.796V3.90305H2572.68V38.0725H2485.31V79.1311H2553.14V113.301H2485.31V162.626H2575.42V196.796H2449.21ZM20.535 529.346V336.455H55.8073V529.346H20.535ZM98.3063 529.346V336.455H133.019L215.419 461.009V336.455H250.681V529.346H221.754L133.6 397.08V529.346H98.3063ZM293.122 529.346V336.455H327.856L410.256 461.009V336.455H445.518V529.346H416.591L328.437 397.08V529.346H293.122ZM571.468 533.205C553.098 533.205 536.734 529.072 522.429 520.805C508.071 512.449 496.827 500.784 488.645 485.808C480.463 470.743 476.399 453.107 476.399 432.901C476.399 412.694 480.463 395.106 488.645 380.13C496.827 365.065 508.071 353.4 522.429 345.133C536.734 336.777 553.098 332.597 571.468 332.597C589.838 332.597 606.201 336.777 620.507 345.133C634.865 353.4 646.109 365.065 654.291 380.13C662.473 395.106 666.537 412.694 666.537 432.901C666.537 453.107 662.473 470.743 654.291 485.808C646.109 500.784 634.865 512.449 620.507 520.805C606.201 529.072 589.838 533.205 571.468 533.205ZM571.468 499.036C584.348 499.036 595.064 496.191 603.721 490.496C612.325 484.8 618.818 476.993 623.146 467.069C627.475 457.061 629.639 445.67 629.639 432.901C629.639 420.132 627.475 408.788 623.146 398.87C618.818 388.856 612.325 381.007 603.721 375.311C595.064 369.616 584.348 366.765 571.468 366.765C558.588 366.765 547.872 369.616 539.215 375.311C530.61 381.007 524.118 388.856 519.789 398.87C515.461 408.788 513.35 420.132 513.35 432.901C513.35 445.67 515.461 457.061 519.789 467.069C524.118 476.993 530.61 484.8 539.215 490.496C547.872 496.191 558.588 499.036 571.468 499.036ZM742.022 529.346L673.452 336.455H708.978L762.187 488.564H755.008L808.481 336.455H844.007L775.384 529.346H742.022ZM958.396 483.607H877.685V452.743H958.396V483.607ZM913.527 370.898H922.607L866.917 529.346H832.764L901.387 336.455H934.695L1003.32 529.346H969.165L913.527 370.898ZM1109.79 533.205C1090.21 533.205 1073 529.072 1058.11 520.805C1043.23 512.449 1031.61 500.784 1023.27 485.808C1014.98 470.743 1010.87 453.107 1010.87 432.901C1010.87 412.694 1015.14 395.106 1023.64 380.13C1032.3 365.065 1044.12 353.4 1059.22 345.133C1074.26 336.777 1091.47 332.597 1110.9 332.597C1121.09 332.597 1130.38 333.7 1138.82 335.906C1147.32 338.018 1154.61 340.678 1160.78 343.893L1156.88 377.512C1149.91 374.298 1142.73 371.679 1135.29 369.658C1127.9 367.546 1119.71 366.491 1110.58 366.491C1097.12 366.491 1085.82 369.341 1076.69 375.031C1067.72 380.727 1060.91 388.582 1056.32 398.595C1051.72 408.609 1049.4 420.042 1049.4 432.901C1049.4 445.759 1051.67 457.198 1056.16 467.212C1060.7 477.22 1067.4 485.074 1076.27 490.77C1085.3 496.466 1096.43 499.311 1109.79 499.311C1119.08 499.311 1127.37 498.303 1134.71 496.281C1142.04 494.259 1149.43 491.599 1156.88 488.289L1160.78 521.909C1153.5 525.308 1145.53 528.016 1136.76 530.038C1128.16 532.149 1119.13 533.205 1109.79 533.205ZM1190.34 529.346V336.455H1225.6V529.346H1190.34ZM1351.61 533.205C1333.24 533.205 1316.87 529.072 1302.57 520.805C1288.21 512.449 1276.97 500.784 1268.78 485.808C1260.65 470.743 1256.54 453.107 1256.54 432.901C1256.54 412.694 1260.65 395.106 1268.78 380.13C1276.97 365.065 1288.21 353.4 1302.57 345.133C1316.87 336.777 1333.24 332.597 1351.61 332.597C1369.98 332.597 1386.34 336.777 1400.65 345.133C1415 353.4 1426.25 365.065 1434.43 380.13C1442.61 395.106 1446.68 412.694 1446.68 432.901C1446.68 453.107 1442.61 470.743 1434.43 485.808C1426.25 500.784 1415 512.449 1400.65 520.805C1386.34 529.072 1369.98 533.205 1351.61 533.205ZM1351.61 499.036C1364.49 499.036 1375.2 496.191 1383.86 490.496C1392.46 484.8 1398.96 476.993 1403.29 467.069C1407.61 457.061 1409.78 445.67 1409.78 432.901C1409.78 420.132 1407.61 408.788 1403.29 398.87C1398.96 388.856 1392.46 381.007 1383.86 375.311C1375.2 369.616 1364.49 366.765 1351.61 366.765C1338.78 366.765 1328.01 369.616 1319.35 375.311C1310.75 381.007 1304.26 388.856 1299.93 398.87C1295.65 408.788 1293.49 420.132 1293.49 432.901C1293.49 445.67 1295.65 457.061 1299.93 467.069C1304.26 476.993 1310.75 484.8 1319.35 490.496C1328.01 496.191 1338.78 499.036 1351.61 499.036ZM1324.63 320.197V301.184L1378.9 275.007V304.214L1324.63 320.197ZM1477.5 529.346V336.455H1512.18L1594.59 461.009V336.455H1629.85V529.346H1600.92L1512.77 397.08V529.346H1477.5ZM1734.21 529.346V336.455H1802.83C1817.61 336.455 1830.12 338.662 1840.31 343.069C1850.5 347.477 1858.2 354.276 1863.43 363.461C1868.76 372.645 1871.45 384.401 1871.45 398.732C1871.45 413.243 1868.81 425.231 1863.59 434.69C1858.36 444.06 1850.71 451.043 1840.57 455.636C1830.49 460.138 1818.19 462.387 1803.67 462.387H1769.47V529.346H1734.21ZM1769.47 432.901H1799.5C1811.54 432.901 1820.57 430.193 1826.53 424.772C1832.6 419.356 1835.61 410.857 1835.61 399.281C1835.61 387.711 1832.55 379.26 1826.37 373.933C1820.3 368.602 1811.12 365.942 1798.71 365.942H1769.47V432.901ZM1976.08 533.205C1957.97 533.205 1943.03 529.626 1931.16 522.458C1919.38 515.294 1910.62 505.239 1904.87 492.285C1899.06 479.331 1896.16 464.134 1896.16 446.678V336.455H1931.42V437.588C1931.42 446.773 1932.05 455.176 1933.21 462.799C1934.43 470.331 1936.59 476.856 1939.71 482.367C1942.93 487.782 1947.47 491.963 1953.33 494.903C1959.24 497.843 1966.79 499.311 1976.08 499.311C1985.37 499.311 1992.92 497.843 1998.83 494.903C2004.69 491.963 2009.17 487.782 2012.29 482.367C2015.51 476.856 2017.73 470.331 2018.94 462.799C2020.1 455.176 2020.73 446.773 2020.73 437.588V336.455H2056V446.678C2056 464.134 2053.09 479.331 2047.29 492.285C2041.53 505.239 2032.72 515.294 2020.84 522.458C2009.12 529.626 1994.18 533.205 1976.08 533.205ZM1949.05 320.197V301.184L2003.37 275.007V304.214L1949.05 320.197ZM2096.17 529.346V336.455H2168.91C2187.54 336.455 2201.37 340.451 2210.4 348.443C2219.48 356.34 2224.02 367.868 2224.02 383.023C2224.02 394.325 2221.43 403.784 2216.31 411.406C2211.24 418.939 2203.64 424.45 2193.45 427.944V421.33C2208.87 424.634 2220.38 430.7 2228.03 439.515C2235.63 448.335 2239.43 460.001 2239.43 474.512C2239.43 491.873 2233.84 505.376 2222.64 515.02C2211.45 524.574 2196.09 529.346 2176.61 529.346H2096.17ZM2131.43 497.933H2171.39C2181.05 497.933 2188.7 495.959 2194.4 492.011C2200.21 488.062 2203.06 480.941 2203.06 470.653C2203.06 460.181 2200.05 453.065 2193.98 449.296C2187.91 445.532 2180.42 443.648 2171.39 443.648H2131.43V497.933ZM2131.43 412.235H2163.68C2172.23 412.235 2178.62 410.488 2182.84 406.999C2187.12 403.509 2189.28 397.904 2189.28 390.192C2189.28 382.2 2187.12 376.504 2182.84 373.105C2178.62 369.616 2172.23 367.868 2163.68 367.868H2131.43V412.235ZM2268.67 529.346V336.455H2303.94V497.933H2383.28V529.346H2268.67ZM2406.45 529.346V336.455H2441.71V529.346H2406.45ZM2571.57 533.205C2551.98 533.205 2534.77 529.072 2519.89 520.805C2505 512.449 2493.39 500.784 2485.05 485.808C2476.76 470.743 2472.64 453.107 2472.64 432.901C2472.64 412.694 2476.92 395.106 2485.47 380.13C2494.08 365.065 2505.95 353.4 2521 345.133C2536.04 336.777 2553.3 332.597 2572.68 332.597C2582.86 332.597 2592.21 333.7 2600.65 335.906C2609.1 338.018 2616.38 340.678 2622.56 343.893L2618.71 377.512C2611.69 374.298 2604.51 371.679 2597.06 369.658C2589.73 367.546 2581.49 366.491 2572.41 366.491C2558.9 366.491 2547.6 369.341 2538.52 375.031C2529.5 380.727 2522.69 388.582 2518.09 398.595C2513.5 408.609 2511.23 420.042 2511.23 432.901C2511.23 445.759 2513.45 457.198 2517.99 467.212C2522.48 477.22 2529.18 485.074 2538.1 490.77C2547.07 496.466 2558.26 499.311 2571.57 499.311C2580.86 499.311 2589.15 498.303 2596.48 496.281C2603.87 494.259 2611.26 491.599 2618.71 488.289L2622.56 521.909C2615.27 525.308 2607.3 528.016 2598.59 530.038C2589.94 532.149 2580.96 533.205 2571.57 533.205ZM2757.43 483.607H2676.67V452.743H2757.43V483.607ZM2712.51 370.898H2721.59L2665.9 529.346H2631.74L2700.37 336.455H2733.73L2802.3 529.346H2768.15L2712.51 370.898Z" fill="#9F2241"/>
</svg>
